<?xml version="1.0" standalone="no"?>
<!DOCTYPE svg PUBLIC "-//W3C//DTD SVG 20010904//EN"
 "http://www.w3.org/TR/2001/REC-SVG-20010904/DTD/svg10.dtd">
<svg version="1.0" xmlns="http://www.w3.org/2000/svg"
 width="2560.000000pt" height="2560.000000pt" viewBox="0 0 2560.000000 2560.000000"
 preserveAspectRatio="xMidYMid meet">
<metadata>
Created by potrace 1.14, written by Peter Selinger 2001-2017
</metadata>
<g transform="translate(0.000000,2560.000000) scale(0.100000,-0.100000)"
fill="#000000" stroke="none">
<path d="M0 12800 l0 -12800 12800 0 12800 0 0 12800 0 12800 -12800 0 -12800
0 0 -12800z m7405 6877 c631 -53 1075 -118 1555 -228 455 -105 761 -209 1092
-374 202 -100 340 -182 496 -294 767 -550 1111 -1212 1173 -2256 24 -409 -12
-786 -112 -1155 -79 -297 -158 -501 -310 -802 -311 -613 -710 -1014 -1246
-1251 l-63 -28 0 -44 0 -43 103 -31 c530 -161 1008 -450 1413 -855 258 -259
393 -443 534 -731 222 -453 322 -954 323 -1610 0 -724 -132 -1309 -414 -1841
-129 -242 -310 -483 -539 -718 -598 -612 -1258 -976 -2255 -1245 -505 -136
-988 -212 -1665 -263 -110 -8 -1002 -12 -3057 -15 l-2903 -4 0 6906 0 6906
2838 -4 c2553 -3 2857 -5 3037 -20z m16225 -1079 l0 -1103 -2825 -4270 -2826
-4270 2846 -3 2845 -2 0 -1530 0 -1530 -5100 0 -5100 0 0 1104 0 1105 2829
4275 2829 4276 -2549 0 -2549 0 0 1525 0 1525 4800 0 4800 0 0 -1102z"/>
<path d="M5180 15606 l0 -1296 703 0 c392 0 753 5 817 10 600 53 983 238 1230
596 173 250 254 597 221 943 -33 335 -151 566 -378 740 -101 77 -322 169 -528
220 -73 17 -123 26 -355 62 -50 8 -343 13 -892 16 l-818 5 0 -1296z"/>
<path d="M5180 10166 l0 -1466 843 0 c478 0 902 5 982 10 454 34 772 109 1060
252 246 121 468 337 582 563 166 329 196 861 70 1230 -96 280 -293 494 -578
630 -177 83 -422 153 -669 190 -316 47 -330 48 -1332 52 l-958 4 0 -1465z"/>
</g>
</svg>
